<svg width="16" height="14" viewBox="0 0 16 14" fill="none" xmlns="http://www.w3.org/2000/svg">
<g id="airplane">
<g id="Group">
<path id="Vector" d="M15.6652 6.95985C15.6585 6.17637 14.5938 5.60717 13.3148 5.60717H10.6161C10.2411 5.60717 10.1005 5.5469 9.8795 5.29244L5.37948 0.383955C5.23885 0.22324 5.06474 0.142883 4.86385 0.142883H4.08706C3.91296 0.142883 3.81252 0.296901 3.89957 0.484401L6.21653 5.60717L2.81474 5.99557L1.60269 3.77235C1.51564 3.60493 1.36832 3.53128 1.14733 3.53128H0.859388C0.685281 3.53128 0.571442 3.64512 0.571442 3.81922V10.1005C0.571442 10.2746 0.685281 10.3817 0.859388 10.3817H1.14733C1.36832 10.3817 1.51564 10.3081 1.60269 10.1473L2.81474 7.92414L6.21653 8.31254L3.89957 13.4353C3.81252 13.6161 3.91296 13.7768 4.08706 13.7768H4.86385C5.06474 13.7768 5.23885 13.6897 5.37948 13.5357L9.8795 8.62054C10.1005 8.37277 10.2411 8.31254 10.6161 8.31254H13.3148C14.5938 8.31254 15.6585 7.73665 15.6652 6.95985Z" fill="black"/>
</g>
</g>
</svg>
