<svg width="12" height="15" viewBox="0 0 12 15" fill="none" xmlns="http://www.w3.org/2000/svg">
<g id="book.closed.fill" clip-path="url(#clip0_80_919)">
<g id="Group">
<path id="Vector" d="M2.34151 14.9219H11.0134C11.308 14.9219 11.5491 14.6875 11.5491 14.3862C11.5491 14.1518 11.3884 13.9442 11.1741 13.8705C10.3303 13.5357 10.1562 12.4442 10.9866 11.6071C11.2411 11.3527 11.5491 11.0246 11.5491 10.3549V2.67409C11.5491 1.28123 10.8594 0.571411 9.47319 0.571411H2.3616C0.975437 0.571411 0.285706 1.27454 0.285706 2.67409V12.8527C0.285706 14.2321 0.982134 14.9219 2.34151 14.9219ZM2.40177 13.8438C1.72544 13.8438 1.36383 13.4822 1.36383 12.846C1.36383 12.2433 1.7924 11.8549 2.46204 11.8549H9.33256C9.41965 11.8549 9.49999 11.8482 9.56696 11.8348C9.25222 12.5312 9.30582 13.2679 9.66068 13.8438H2.40177ZM2.20088 10.837C1.99329 10.837 1.81919 10.663 1.81919 10.4487V1.99106C1.81919 1.77677 1.99329 1.60936 2.20088 1.60936C2.40847 1.60936 2.58928 1.77677 2.58928 1.99106V10.4487C2.58928 10.663 2.40847 10.837 2.20088 10.837Z" fill="black"/>
</g>
</g>
<defs>
<clipPath id="clip0_80_919">
<rect width="11.2634" height="14.3505" fill="white" transform="translate(0.285706 0.571411)"/>
</clipPath>
</defs>
</svg>
