<svg width="21" height="18" viewBox="0 0 21 18" fill="none" xmlns="http://www.w3.org/2000/svg">
<g id="bubble.left.and.text.bubble.right.fill" clip-path="url(#clip0_80_850)">
<g id="Group">
<path id="Vector" d="M3.78126 12.6227H4.10269V14.3705C4.10269 14.8862 4.37055 15.2143 4.8326 15.2143C5.16742 15.2143 5.3951 15.0402 5.79688 14.6853L8.11384 12.6227H12.4062C14.4018 12.6227 15.4732 11.5246 15.4732 9.56251V4.42633C15.4732 2.46428 14.4018 1.35938 12.4062 1.35938H3.78126C1.79242 1.35938 0.714294 2.46428 0.714294 4.42633V9.56251C0.714294 11.5246 1.79242 12.6227 3.78126 12.6227Z" fill="black"/>
<path id="Vector_2" d="M10.7924 15.154H12.6205L14.6027 16.8415C15.1719 17.337 15.5536 17.5915 16.1495 17.5915C17.1004 17.5915 17.7835 16.8817 17.7835 15.8437V15.087H17.7968C19.7522 14.8058 20.8638 13.4263 20.8638 11.3035V7.68077C20.8638 5.28345 19.4509 3.83032 17.0067 3.83032H10.7924C8.34153 3.83032 6.93524 5.28345 6.93524 7.68077V11.3035C6.93524 13.7009 8.34153 15.154 10.7924 15.154Z" fill="white"/>
<path id="Vector_3" d="M11.4017 8.75893C11.0937 8.75893 10.8795 8.53127 10.8795 8.23664C10.8795 7.93527 11.0937 7.7143 11.4017 7.7143H16.4375C16.7388 7.7143 16.9665 7.93527 16.9665 8.23664C16.9665 8.53127 16.7388 8.75893 16.4375 8.75893H11.4017ZM11.4017 11.337C11.0937 11.337 10.8795 11.1295 10.8795 10.8281C10.8795 10.5335 11.0937 10.2924 11.4017 10.2924H15.0848C15.3795 10.2924 15.6205 10.5335 15.6205 10.8281C15.6205 11.1295 15.3795 11.337 15.0848 11.337H11.4017ZM10.7924 14.2366H12.9553L15.1919 16.1518C15.6004 16.5 15.8214 16.6808 16.1495 16.6808C16.6116 16.6808 16.8727 16.3527 16.8727 15.8438V14.2366H17.0067C18.9352 14.2366 19.9464 13.1987 19.9464 11.3036V7.68081C19.9464 5.77903 18.9352 4.74109 17.0067 4.74109H10.7924C8.8638 4.74109 7.85266 5.77903 7.85266 7.68081V11.3036C7.85266 13.2054 8.8638 14.2366 10.7924 14.2366Z" fill="black"/>
</g>
</g>
<defs>
<clipPath id="clip0_80_850">
<rect width="20.1495" height="17.163" fill="white" transform="translate(0.714294 0.428589)"/>
</clipPath>
</defs>
</svg>
