<svg width="15" height="16" viewBox="0 0 15 16" fill="none" xmlns="http://www.w3.org/2000/svg">
<g id="bus.doubledecker">
<g id="Group">
<path id="Vector" d="M7.2746 13.7589C8.80808 13.7589 10.6897 13.6652 12.0559 13.5045C12.9599 13.3973 13.4688 12.9018 13.4688 12.038V1.14287C13.4688 0.285732 12.9599 -0.2165 12.0559 -0.316947C10.6897 -0.477661 8.80808 -0.571411 7.2746 -0.571411C5.7344 -0.571411 3.85271 -0.477661 2.49333 -0.316947C1.58261 -0.2165 1.08038 0.285732 1.08038 1.14287V12.038C1.08038 12.9018 1.58261 13.3973 2.49333 13.5045C3.85271 13.6585 5.7344 13.7589 7.2746 13.7589ZM7.2746 12.8817C5.67413 12.8817 3.89288 12.788 2.72771 12.6473C2.15851 12.5804 1.95761 12.2857 1.95761 11.7701V1.41073C1.95761 0.9018 2.15851 0.60716 2.72771 0.540195C3.89288 0.392875 5.67413 0.305823 7.2746 0.305823C8.84825 0.305823 10.6295 0.392875 11.8215 0.540195C12.3907 0.60716 12.5916 0.9018 12.5916 1.41073V11.7701C12.5916 12.2857 12.3907 12.5804 11.8215 12.6473C10.6295 12.788 8.84825 12.8817 7.2746 12.8817ZM2.30583 15.6072H3.09601C3.59824 15.6072 3.98663 15.2188 3.98663 14.7232V13.2768L1.4219 12.8884V14.7232C1.4219 15.2188 1.8036 15.6072 2.30583 15.6072ZM11.4532 15.6072H12.2367C12.7389 15.6072 13.1273 15.2188 13.1273 14.7232V12.8884L10.5625 13.2768V14.7232C10.5625 15.2188 10.9509 15.6072 11.4532 15.6072ZM1.51565 7.41745V3.96207H0.779043C0.404044 3.96207 0.142883 4.19645 0.142883 4.55135V6.83482C0.142883 7.18305 0.404044 7.41745 0.779043 7.41745H1.51565ZM13.0335 7.41745H13.7701C14.1451 7.41745 14.4063 7.18305 14.4063 6.83482V4.55135C14.4063 4.19645 14.1451 3.96207 13.7701 3.96207H13.0335V7.41745ZM2.64735 4.85939H11.9018V2.12055C11.9018 1.61162 11.6675 1.34377 11.1251 1.27681C8.81477 1.02903 5.7344 1.02903 3.43083 1.27681C2.88842 1.34377 2.64735 1.61162 2.64735 2.12055V4.85939ZM2.64735 5.77013V8.43527C2.64735 8.88396 2.85493 9.11162 3.27012 9.18527C5.30583 9.5335 9.16968 9.55362 11.2791 9.18527C11.6473 9.1183 11.9018 8.88396 11.9018 8.43527V5.77013H2.64735ZM3.68529 11.8438C4.11387 11.8438 4.44199 11.5089 4.44199 11.087C4.44199 10.6585 4.11387 10.3304 3.68529 10.3304C3.26342 10.3304 2.9286 10.6585 2.9286 11.087C2.9286 11.5089 3.26342 11.8438 3.68529 11.8438ZM5.97545 11.6429H8.56031C8.88174 11.6429 9.12277 11.4018 9.12277 11.0804C9.12277 10.7522 8.88843 10.5178 8.56031 10.5178H5.97545C5.64735 10.5178 5.41297 10.7522 5.41297 11.0804C5.41297 11.4018 5.65404 11.6429 5.97545 11.6429ZM10.8639 11.8438C11.2857 11.8438 11.6205 11.5089 11.6205 11.087C11.6205 10.6585 11.2857 10.3304 10.8639 10.3304C10.4353 10.3304 10.1072 10.6585 10.1072 11.087C10.1072 11.5089 10.4353 11.8438 10.8639 11.8438Z" fill="black"/>
</g>
</g>
</svg>
