<svg width="16" height="14" viewBox="0 0 16 14" fill="none" xmlns="http://www.w3.org/2000/svg">
<g id="car">
<g id="Group">
<path id="Vector" d="M3.14062 4.92635C3.08705 5.16072 3.1875 5.25447 3.44197 5.24108C4.51339 5.16742 5.78571 5.10715 7.92189 5.10715C10.0647 5.10715 11.337 5.16742 12.4085 5.24108C12.6562 5.25447 12.7567 5.16072 12.7031 4.92635C12.5424 4.21653 12.2344 3.29242 12.0201 2.92412C11.846 2.62277 11.6518 2.48885 11.3035 2.44197C10.8214 2.37501 9.7232 2.32813 7.92189 2.32813C6.12726 2.32813 5.02902 2.37501 4.54018 2.44197C4.19197 2.48885 3.99777 2.62277 3.82366 2.92412C3.60938 3.29242 3.30803 4.21653 3.14062 4.92635ZM3.09375 9.48664C3.70313 9.48664 4.17187 9.01784 4.17187 8.40847C4.17187 7.79241 3.70313 7.33035 3.09375 7.33035C2.48438 7.33035 2.01562 7.79241 2.01562 8.40847C2.01562 9.01784 2.48438 9.48664 3.09375 9.48664ZM6.154 9.21875H9.69646C10.1518 9.21875 10.4665 8.90401 10.4665 8.44195C10.4665 7.98664 10.1518 7.67189 9.69646 7.67189H6.154C5.69197 7.67189 5.37723 7.98664 5.37723 8.44195C5.37723 8.90401 5.69197 9.21875 6.154 9.21875ZM12.75 9.48664C13.3661 9.48664 13.8281 9.01784 13.8281 8.40847C13.8281 7.79241 13.3661 7.33035 12.75 7.33035C12.1406 7.33035 11.6786 7.79241 11.6786 8.40847C11.6786 9.01784 12.1406 9.48664 12.75 9.48664ZM7.92189 11.2946C10.1719 11.2946 13.1652 11.1808 14.4308 11.0335C15.3415 10.933 15.8438 10.4308 15.8438 9.57366V8.39509C15.8438 7.26338 15.6161 6.63395 15 5.83036L14.4308 5.10045C14.1897 3.8951 13.7411 2.62947 13.5134 2.13394C13.1518 1.37724 12.4621 0.92858 11.5714 0.808044C11.1227 0.747777 9.65623 0.714294 7.92189 0.714294C6.19417 0.714294 4.72768 0.754473 4.27902 0.808044C3.38839 0.915187 2.69197 1.37724 2.33705 2.13394C2.10268 2.62947 1.66071 3.8951 1.41295 5.10045L0.850446 5.83036C0.227679 6.63395 0 7.26338 0 8.39509V9.57366C0 10.4308 0.508929 10.933 1.41295 11.0335C2.68527 11.1808 5.67187 11.2946 7.92189 11.2946ZM7.92189 10.4174C5.64509 10.4174 2.72545 10.3103 1.64732 10.1764C1.07813 10.1094 0.877234 9.81475 0.877234 9.30584V8.39509C0.877234 7.47767 1.02455 7.04909 1.54687 6.36608L2.22991 5.46876C2.41071 4.49777 2.84598 3.1451 3.13393 2.52903C3.34822 2.06697 3.77009 1.77903 4.37946 1.70537C4.80803 1.65179 6.16743 1.59153 7.92189 1.59153C9.68303 1.59153 11.0625 1.65179 11.4509 1.70537C12.0803 1.78572 12.4955 2.07367 12.7165 2.52903C13.0045 3.1451 13.4397 4.49777 13.6138 5.46876L14.3035 6.36608C14.8192 7.04909 14.9665 7.47767 14.9665 8.39509V9.30584C14.9665 9.81475 14.7656 10.1094 14.1965 10.1764C13.125 10.3103 10.1987 10.4174 7.92189 10.4174ZM1.23214 13.1362H2.01562C2.51786 13.1362 2.90625 12.7478 2.90625 12.2522V10.6585L0.341518 10.2902V12.2522C0.341518 12.7478 0.729909 13.1362 1.23214 13.1362ZM13.8281 13.1362H14.6183C15.1205 13.1362 15.5022 12.7478 15.5022 12.2522V10.2902L12.9442 10.6585V12.2522C12.9442 12.7478 13.3259 13.1362 13.8281 13.1362Z" fill="#A3835C"/>
</g>
</g>
</svg>
