<svg width="12" height="14" viewBox="0 0 12 14" fill="none" xmlns="http://www.w3.org/2000/svg">
<g id="checkmark.shield.fill">
<g id="Group">
<path id="Vector" d="M5.76339 13.663C5.87053 13.663 6.03793 13.6228 6.20536 13.5357C10.0156 11.5402 11.2411 10.5424 11.2411 8.13842V3.0893C11.2411 2.39957 10.9464 2.17859 10.3839 1.94421C9.60045 1.62278 7.09599 0.712071 6.31919 0.444214C6.13839 0.383946 5.95088 0.350464 5.76339 0.350464C5.57588 0.350464 5.38839 0.390643 5.21428 0.444214C4.4308 0.698678 1.92633 1.62948 1.14285 1.94421C0.587045 2.17189 0.285706 2.39957 0.285706 3.0893V8.13842C0.285706 10.5424 1.57812 11.4264 5.32142 13.5357C5.49553 13.6295 5.65624 13.663 5.76339 13.663Z" fill="black"/>
<path id="Vector_2" d="M5.01339 10.0267C4.78571 10.0267 4.59821 9.93966 4.4241 9.70532L2.74329 7.6428C2.64285 7.50886 2.58258 7.35486 2.58258 7.20755C2.58258 6.89949 2.81696 6.65172 3.12499 6.65172C3.31249 6.65172 3.45981 6.71869 3.62723 6.93966L4.9866 8.69412L7.84599 4.10039C7.97319 3.8928 8.14731 3.79236 8.32811 3.79236C8.61605 3.79236 8.89062 3.99325 8.89062 4.30128C8.89062 4.45531 8.81028 4.60932 8.72319 4.74325L5.57588 9.70532C5.43526 9.9196 5.24107 10.0267 5.01339 10.0267Z" fill="white"/>
</g>
</g>
</svg>
