<svg width="12" height="15" viewBox="0 0 12 15" fill="none" xmlns="http://www.w3.org/2000/svg">
<g id="doc.text.fill" clip-path="url(#clip0_80_942)">
<g id="Group">
<path id="Vector" d="M3.2924 9.66518C3.03124 9.66518 2.83704 9.47764 2.83704 9.22987C2.83704 8.98215 3.03124 8.78792 3.2924 8.78792H8.5625C8.81696 8.78792 9.01113 8.98215 9.01113 9.22987C9.01113 9.47764 8.81696 9.66518 8.5625 9.66518H3.2924ZM3.2924 12.2031C3.03124 12.2031 2.83704 12.0156 2.83704 11.7679C2.83704 11.5201 3.03124 11.3259 3.2924 11.3259H8.5625C8.81696 11.3259 9.01113 11.5201 9.01113 11.7679C9.01113 12.0156 8.81696 12.2031 8.5625 12.2031H3.2924ZM2.3616 14.9286H9.47319C10.8594 14.9286 11.5491 14.2254 11.5491 12.8326V6.75221H6.7009C5.84374 6.75221 5.43526 6.34375 5.43526 5.48659V0.571411H2.3616C0.982134 0.571411 0.285706 1.28123 0.285706 2.67409V12.8326C0.285706 14.2321 0.975437 14.9286 2.3616 14.9286ZM6.72096 5.83481H11.4687C11.4286 5.56025 11.2344 5.29239 10.913 4.96427L7.22319 1.20757C6.90845 0.886143 6.63393 0.691947 6.35268 0.645072V5.47319C6.35268 5.71427 6.47319 5.83481 6.72096 5.83481Z" fill="black"/>
</g>
</g>
<defs>
<clipPath id="clip0_80_942">
<rect width="11.2634" height="14.3638" fill="white" transform="translate(0.285706 0.571411)"/>
</clipPath>
</defs>
</svg>
