<svg width="9" height="16" viewBox="0 0 9 16" fill="none" xmlns="http://www.w3.org/2000/svg">
<g id="dollarsign">
<g id="Group">
<path id="Vector" d="M4.25223 14.125C6.5156 14.125 8.4308 12.9464 8.4308 10.7969C8.4308 9.14286 7.37274 8.15846 5.00893 7.58926L3.73661 7.28794C2.2433 6.93303 1.55357 6.31029 1.55357 5.33259C1.55357 4.28125 2.55134 3.37723 4.24554 3.37723C5.6317 3.37723 6.58257 4.02679 6.95091 5.22545C7.05806 5.57366 7.28571 5.75446 7.62051 5.75446C8.0156 5.75446 8.23663 5.5 8.23663 5.11161C8.23663 5.00446 8.2232 4.89062 8.18971 4.77009C7.78794 3.22321 6.22097 2.19197 4.24554 2.19197C1.91518 2.19197 0.247768 3.50446 0.247768 5.41295C0.247768 6.99331 1.29241 7.9844 3.53571 8.5268L4.80803 8.82811C6.47543 9.22989 7.12503 9.80583 7.12503 10.8906C7.12503 12.183 6.06697 12.9397 4.26562 12.9397C2.65848 12.9397 1.60714 12.2634 1.28571 11.0111C1.17187 10.6562 0.950891 10.4754 0.616069 10.4754C0.227679 10.4754 0 10.7366 0 11.1317C0 11.2321 0.0133929 11.346 0.046875 11.4665C0.46875 13.1473 2.2433 14.125 4.25223 14.125ZM4.21875 15.7389C4.5 15.7389 4.72768 15.5111 4.72768 15.2299V1.12723C4.72768 0.845982 4.5 0.625 4.21875 0.625C3.9375 0.625 3.71652 0.845982 3.71652 1.12723V15.2299C3.71652 15.5111 3.9375 15.7389 4.21875 15.7389Z" fill="black"/>
</g>
</g>
</svg>
