<svg width="12" height="24" viewBox="0 0 12 24" fill="none" xmlns="http://www.w3.org/2000/svg">
<g id="figure.wave" clip-path="url(#clip0_66_342)">
<g id="Group">
<path id="Vector" d="M0.857975 1.80409L1.04882 5.32976C1.07896 5.97261 1.33007 6.34426 1.78209 6.67574L3.96177 8.27283C4.23298 8.46369 4.38364 8.60431 4.38364 9.07641V22.1846C4.38364 22.7271 4.82561 23.159 5.36802 23.159C5.91043 23.159 6.34235 22.7271 6.34235 22.1846V15.1333C6.34235 14.9525 6.50307 14.7918 6.68387 14.7918C6.86467 14.7918 7.01534 14.9525 7.01534 15.1333V22.1846C7.01534 22.7271 7.45731 23.159 7.99971 23.159C8.54212 23.159 8.97405 22.7271 8.97405 22.1846V10.5429C8.97405 10.3621 9.12471 10.2215 9.30552 10.2215C9.48629 10.2215 9.62695 10.3621 9.62695 10.5429V14.4101C9.62695 14.9124 10.0287 15.3041 10.5209 15.3041C11.0131 15.3041 11.4149 14.9124 11.4149 14.4101V10.0909C11.4149 7.87105 9.78766 6.39449 7.41712 6.39449H5.32784C4.72516 6.39449 4.35351 6.27395 3.87137 5.93243L2.82673 5.18913L2.63588 1.71368C2.61579 1.2215 2.19391 0.819711 1.70172 0.85989C1.19949 0.900069 0.837886 1.3119 0.857975 1.80409ZM6.68387 5.26949C7.89927 5.26949 8.8736 4.29516 8.8736 3.07976C8.8736 1.86435 7.89927 0.890024 6.68387 0.890024C5.46847 0.890024 4.49414 1.86435 4.49414 3.07976C4.49414 4.29516 5.46847 5.26949 6.68387 5.26949Z" fill="black" fill-opacity="0.85"/>
</g>
</g>
<defs>
<clipPath id="clip0_66_342">
<rect width="10.5577" height="22.3951" fill="white" transform="translate(0.857178 0.857117)"/>
</clipPath>
</defs>
</svg>
