<svg width="10" height="16" viewBox="0 0 10 16" fill="none" xmlns="http://www.w3.org/2000/svg">
<g id="figure.walk" clip-path="url(#clip0_66_978)">
<g id="Group">
<path id="Vector" d="M1.54923 15.0223L3.56486 12.625C3.75905 12.3906 3.79254 12.337 3.87289 12.0892L4.02022 11.6339L2.94209 10.2812L2.61396 11.7946L0.625124 14.1518C-0.00434044 14.9084 1.0336 15.6451 1.54923 15.0223ZM6.45104 14.8214C6.86618 15.6584 8.09835 15.1428 7.64967 14.2321L6.28361 11.4665C6.17647 11.2589 6.03584 11.0312 5.9086 10.8504L5.04476 9.62501L5.10503 9.44415C5.33271 8.74775 5.41976 8.33255 5.47333 7.64284L5.60727 5.70757C5.67423 4.79016 5.13182 4.09373 4.18762 4.09373C3.4845 4.09373 3.00236 4.44865 2.3528 5.08481L1.32825 6.09596C0.993427 6.4241 0.886284 6.69193 0.852802 7.12724L0.732266 8.70758C0.698784 9.10935 0.919766 9.39061 1.28807 9.40398C1.66307 9.43078 1.89075 9.20981 1.92423 8.78124L2.07825 7.04684L2.56709 6.6049C2.74789 6.44415 2.97557 6.5513 2.96887 6.7321L2.86173 8.19867C2.80146 8.94193 2.97557 9.29684 3.4845 9.93301L4.84387 11.6339C4.9778 11.808 4.99119 11.875 5.05146 11.9822L6.45104 14.8214ZM8.78138 6.70535H7.23452L6.26349 5.62722L6.14967 7.24107L6.53807 7.62947C6.75235 7.84375 6.93984 7.91072 7.34167 7.91072H8.78138C9.18315 7.91072 9.45104 7.68301 9.45104 7.30804C9.45104 6.94638 9.17647 6.70535 8.78138 6.70535ZM4.93762 3.49106C5.74119 3.49106 6.39075 2.83481 6.39075 2.03123C6.39075 1.22097 5.74119 0.571411 4.93762 0.571411C4.12736 0.571411 3.4778 1.22097 3.4778 2.03123C3.4778 2.83481 4.12736 3.49106 4.93762 3.49106Z" fill="black" fill-opacity="0.85"/>
</g>
</g>
<defs>
<clipPath id="clip0_66_978">
<rect width="9.02257" height="15.0737" fill="white" transform="translate(0.428467 0.571411)"/>
</clipPath>
</defs>
</svg>
