<svg width="15" height="14" viewBox="0 0 15 14" fill="none" xmlns="http://www.w3.org/2000/svg">
<g id="figure.mind.and.body">
<g id="Group">
<path id="Vector" d="M0.366353 6.36608L2.60966 8.61607C2.91769 8.92412 3.41993 8.93081 3.72126 8.55584L5.13421 6.81475C5.22796 6.70761 5.37528 6.76789 5.37528 6.90178V9.86829L2.84403 9.58704C1.9735 9.48664 1.69225 10.7656 2.5293 11.0402L5.40207 11.9911C5.26144 12.587 5.77707 13.096 6.36634 12.9018L7.25028 12.6138L8.13422 12.9018C8.72348 13.096 9.23914 12.587 9.09851 11.9911L11.9779 11.0402C12.815 10.7656 12.5271 9.48664 11.6565 9.58704L9.12531 9.86829V6.90178C9.12531 6.76789 9.27931 6.70761 9.36634 6.81475L10.7793 8.55584C11.0806 8.93081 11.5829 8.92412 11.8909 8.61607L14.1342 6.36608C14.4289 6.06474 14.4355 5.60269 14.1342 5.30804C13.8463 5.0201 13.3708 5.0201 13.0762 5.30804L11.4222 6.96875L9.73468 4.89956C9.45342 4.55804 9.03154 4.34376 8.58285 4.34376H5.9244C5.46903 4.34376 5.05385 4.55804 4.7659 4.89956L3.07841 6.96875L1.42439 5.30804C1.12974 5.0201 0.654299 5.0201 0.366353 5.30804C0.0650138 5.60269 0.0717103 6.06474 0.366353 6.36608ZM7.25028 3.64063C8.05388 3.64063 8.70342 2.98439 8.70342 2.16742C8.70342 1.36385 8.05388 0.714294 7.25028 0.714294C6.43331 0.714294 5.77707 1.36385 5.77707 2.16742C5.77707 2.98439 6.43331 3.64063 7.25028 3.64063Z" fill="black"/>
</g>
</g>
</svg>
