<svg width="38" height="24" viewBox="0 0 38 24" fill="none" xmlns="http://www.w3.org/2000/svg">
<g id="flag.2.crossed.fill">
<g id="Group">
<path id="Vector" d="M13.5802 21.2809C13.3693 21.6424 13.4999 22.1145 13.8615 22.3255C14.2331 22.5364 14.6852 22.4159 14.886 22.0443L21.174 11.1659C21.6461 11.3467 22.3793 11.5978 23.203 12.0598C25.6338 13.4762 26.5881 15.706 29.0992 17.1626C29.8224 17.5945 30.6059 17.9059 31.1986 17.9762C31.9217 18.0465 32.5546 17.8255 33.0066 17.042L37.0445 10.0409C37.366 9.4884 37.1249 8.9862 36.6126 8.68486C36.1707 8.43375 35.2365 8.20272 34.1717 7.59C31.7309 6.18375 30.7867 3.94379 28.2755 2.48732C27.5524 2.06544 26.7588 1.75406 26.1662 1.68375C25.453 1.61343 24.8202 1.84446 24.3682 2.62794L13.5802 21.2809Z" fill="black" fill-opacity="0.85"/>
<path id="Vector_2" d="M25.9452 20.6983L15.1572 2.03534C14.5245 0.950517 13.4999 0.388017 12.2041 0.518597C11.4407 0.608999 10.4765 0.980651 9.64279 1.48289C6.75994 3.15029 5.87601 5.34003 3.74655 6.57551C2.80236 7.12797 1.90838 7.32887 1.3057 7.67039C0.240969 8.29315 -0.200995 9.49854 0.441862 10.6235L4.47981 17.6246C5.11262 18.7195 6.12713 19.2719 7.42289 19.1414C8.20637 19.051 9.17068 18.6693 9.99431 18.1771C12.8872 16.5096 13.761 14.3099 15.8905 13.0845C16.2321 12.8836 16.5535 12.7429 16.8247 12.6324L22.6003 22.6269C23.1327 23.561 24.3079 23.8724 25.2321 23.33C26.1461 22.8077 26.4676 21.6224 25.9452 20.6983Z" fill="white"/>
<path id="Vector_3" d="M24.9207 21.2809L14.1428 2.62794C13.6908 1.84446 13.058 1.61343 12.3348 1.68375C11.7422 1.75406 10.9486 2.06544 10.2355 2.48732C7.72428 3.94379 6.77004 6.18375 4.32919 7.59C3.26446 8.20272 2.3303 8.43375 1.88834 8.68486C1.37606 8.9862 1.14504 9.4884 1.45642 10.0409L5.49437 17.042C5.94637 17.8255 6.57919 18.0465 7.30241 17.9762C7.89504 17.9059 8.68856 17.5945 9.40173 17.1626C11.9229 15.706 12.8672 13.4762 15.308 12.0598C16.1216 11.5978 16.8649 11.3467 17.337 11.1659L23.6149 22.0443C23.8258 22.4159 24.2779 22.5364 24.6495 22.3255C25.001 22.1145 25.1317 21.6424 24.9207 21.2809Z" fill="black" fill-opacity="0.85"/>
</g>
</g>
</svg>
