<svg width="14" height="14" viewBox="0 0 14 14" fill="none" xmlns="http://www.w3.org/2000/svg">
<g id="globe" clip-path="url(#clip0_80_1052)">
<g id="Group">
<path id="Vector" d="M6.97323 13.4286C8.83483 13.4286 10.3549 10.6764 10.3549 6.98665C10.3549 3.27681 8.84157 0.52458 6.97323 0.52458C5.10493 0.52458 3.59155 3.27681 3.59155 6.98665C3.59155 10.6764 5.11163 13.4286 6.97323 13.4286ZM6.97323 1.33485C8.28574 1.33485 9.45763 3.94645 9.45763 6.98665C9.45763 9.97323 8.28574 12.6116 6.97323 12.6116C5.66074 12.6116 4.48887 9.97323 4.48887 6.98665C4.48887 3.94645 5.66074 1.33485 6.97323 1.33485ZM6.53797 0.61833V13.3013H7.41523V0.61833H6.53797ZM6.97323 9.49111C4.91074 9.49111 3.08261 10.0335 2.14512 10.8973L2.82145 11.4532C3.70539 10.75 5.14512 10.3683 6.97323 10.3683C8.80134 10.3683 10.2411 10.75 11.1251 11.4532L11.8013 10.8973C10.8639 10.0335 9.03574 9.49111 6.97323 9.49111ZM13.154 6.53128H0.792437V7.40848H13.154V6.53128ZM6.97323 4.48887C9.03574 4.48887 10.8639 3.94645 11.8013 3.08261L11.1251 2.52681C10.2411 3.22324 8.80134 3.61163 6.97323 3.61163C5.14512 3.61163 3.70539 3.22324 2.82145 2.52681L2.14512 3.08261C3.08261 3.94645 4.91074 4.48887 6.97323 4.48887ZM6.97323 13.8036C10.7099 13.8036 13.8036 10.7032 13.8036 6.97323C13.8036 3.23663 10.7032 0.142883 6.96654 0.142883C3.23663 0.142883 0.142883 3.23663 0.142883 6.97323C0.142883 10.7032 3.24333 13.8036 6.97323 13.8036ZM6.97323 12.8929C3.73887 12.8929 1.0536 10.2076 1.0536 6.97323C1.0536 3.73887 3.73217 1.0536 6.96654 1.0536C10.2009 1.0536 12.8929 3.73887 12.8929 6.97323C12.8929 10.2076 10.2076 12.8929 6.97323 12.8929Z" fill="black"/>
</g>
</g>
<defs>
<clipPath id="clip0_80_1052">
<rect width="13.6607" height="13.6674" fill="white" transform="translate(0.142883 0.142883)"/>
</clipPath>
</defs>
</svg>
