<svg width="11" height="10" viewBox="0 0 11 10" fill="none" xmlns="http://www.w3.org/2000/svg">
<g id="heart" clip-path="url(#clip0_66_586)">
<g id="Group">
<path id="Vector" d="M0.857178 3.62557C0.857178 5.7651 2.65014 7.86942 5.48275 9.67748C5.58822 9.74275 5.73886 9.81308 5.84433 9.81308C5.94981 9.81308 6.10049 9.74275 6.21098 9.67748C9.03852 7.86942 10.8315 5.7651 10.8315 3.62557C10.8315 1.84767 9.61109 0.592087 7.98385 0.592087C7.05471 0.592087 6.30136 1.03405 5.84433 1.71206C5.39738 1.03907 4.63396 0.592087 3.70483 0.592087C2.0776 0.592087 0.857178 1.84767 0.857178 3.62557ZM1.66577 3.62557C1.66577 2.28963 2.52961 1.40068 3.69479 1.40068C4.63899 1.40068 5.18138 1.98829 5.50281 2.49052C5.63841 2.69142 5.72382 2.74666 5.84433 2.74666C5.96489 2.74666 6.04023 2.68639 6.18586 2.49052C6.53241 1.99833 7.05471 1.40068 7.99388 1.40068C9.15908 1.40068 10.0229 2.28963 10.0229 3.62557C10.0229 5.49385 8.04912 7.50784 5.94981 8.90404C5.89958 8.93918 5.86443 8.9643 5.84433 8.9643C5.82423 8.9643 5.78909 8.93918 5.74388 8.90404C3.63954 7.50784 1.66577 5.49385 1.66577 3.62557Z" fill="black" fill-opacity="0.85"/>
</g>
</g>
<defs>
<clipPath id="clip0_66_586">
<rect width="9.97431" height="9.52736" fill="white" transform="translate(0.857178 0.285721)"/>
</clipPath>
</defs>
</svg>
