<svg width="12" height="12" viewBox="0 0 12 12" fill="none" xmlns="http://www.w3.org/2000/svg">
<g id="message" clip-path="url(#clip0_66_835)">
<g id="Group">
<path id="Vector" d="M2.60816 11.3789C3.28617 11.3789 4.67233 10.6959 5.69184 9.96763C9.19241 10.0631 11.8191 8.05415 11.8191 5.42242C11.8191 2.89621 9.28785 0.857147 6.1238 0.857147C2.95972 0.857147 0.428467 2.89621 0.428467 5.42242C0.428467 7.06976 1.48316 8.53123 3.07021 9.26452C2.8442 9.70145 2.42233 10.2941 2.19632 10.5904C1.93014 10.9419 2.09086 11.3789 2.60816 11.3789ZM3.1355 10.5452C3.09532 10.5603 3.08025 10.5301 3.10536 10.495C3.38661 10.1484 3.7884 9.6261 3.95916 9.30468C4.09979 9.04355 4.06463 8.8125 3.7432 8.66182C2.16619 7.92858 1.26217 6.75836 1.26217 5.42242C1.26217 3.36329 3.41675 1.68583 6.1238 1.68583C8.83584 1.68583 10.9904 3.36329 10.9904 5.42242C10.9904 7.47656 8.83584 9.15403 6.1238 9.15403C6.02334 9.15403 5.86764 9.14902 5.66677 9.14396C5.45582 9.14396 5.29511 9.20928 5.10427 9.35992C4.4865 9.80692 3.59253 10.3594 3.1355 10.5452Z" fill="black" fill-opacity="0.85"/>
</g>
</g>
<defs>
<clipPath id="clip0_66_835">
<rect width="11.3906" height="10.5218" fill="white" transform="translate(0.428467 0.857147)"/>
</clipPath>
</defs>
</svg>
