<svg width="14" height="14" viewBox="0 0 14 14" fill="none" xmlns="http://www.w3.org/2000/svg">
<g id="person.crop.circle.fill" clip-path="url(#clip0_66_906)">
<g id="Group">
<path id="Vector" d="M6.97317 13.8036C10.7098 13.8036 13.8035 10.7032 13.8035 6.97323C13.8035 3.23663 10.7031 0.142883 6.96648 0.142883C3.23657 0.142883 0.142822 3.23663 0.142822 6.97323C0.142822 10.7032 3.24327 13.8036 6.97317 13.8036Z" fill="black" fill-opacity="0.85"/>
<path id="Vector_2" d="M6.96659 12.7857C5.43311 12.7857 3.87953 12.1562 2.85498 11.0648C3.5782 9.92636 5.15185 9.25671 6.96659 9.25671C8.76796 9.25671 10.355 9.91299 11.0849 11.0648C10.0537 12.1562 8.50676 12.7857 6.96659 12.7857ZM6.96659 8.11831C5.68088 8.10493 4.66972 7.03351 4.66972 5.59377C4.66302 4.24109 5.68757 3.11609 6.96659 3.11609C8.2523 3.11609 9.26344 4.24109 9.26344 5.59377C9.26344 7.03351 8.25899 8.13173 6.96659 8.11831Z" fill="white"/>
</g>
</g>
<defs>
<clipPath id="clip0_66_906">
<rect width="13.6607" height="13.6674" fill="white" transform="translate(0.142822 0.142883)"/>
</clipPath>
</defs>
</svg>
